<svg xmlns="http://www.w3.org/2000/svg" xmlns:xlink="http://www.w3.org/1999/xlink" id="Layer_1" x="0px" y="0px" viewBox="0 0 800 140.9" style="enable-background:new 0 0 800 140.9;" xml:space="preserve"><style type="text/css">	.st0{fill:#00598C;}</style><g>	<path class="st0" d="M0,70.5c0,39.1,31,70.5,69.3,70.5c20,0,37.9-8.4,50.4-22c1.6-1.6,1.2-4.3-1-6.1c-2-2-10.8-9.4-11.6-10.2   c-0.8-0.8-3.7-1.8-6.5,0.6c-8.2,8.2-19.2,13.2-31.4,13.2c-24.7,0-45-20.6-45-45.9c0-25.3,20.2-45.9,45-45.9   c13,0,24.5,5.7,32.8,14.5c1.6,1.8,3.5,0.6,4.1,0l14.1-12.2c1.4-1.2,1.4-2.7,0.2-4.1C108,8.8,89.7,0,69.3,0C31,0,0,31.6,0,70.5"></path>	<path class="st0" d="M346.3,1.6c-3.7,0-4.9,2-5.7,3.5c-0.8,1.2-16.9,32.2-24.5,46.1c-10.4,18.1-15.5,30.4-15.5,39.3v45.1   c0,2,1.6,3.5,3.5,3.5h17.3c2,0,3.5-1.6,3.5-3.5c0,0-0.2-43.4,0-46.7c0.2-3.3,0.8-5.9,2.2-8.4l41-75c0.4-0.8,2.2-3.9-2.9-3.9H346.3z    M258.6,1.6c-3.1,0-3.3,2.4-2.6,3.9l28.5,51.8c1.2,2.4,4.1,2.9,5.7-0.2l8.2-15.1c1.8-3.5,1.2-6.7,0-9   c-7.5-13.7-14.9-28.3-15.3-28.9c-0.8-1.4-1-2.6-5.9-2.6H258.6z"></path>	<path class="st0" d="M392.5,1.6c-2,0-3.5,1.8-3.5,3.7v18.1c0,2,1.6,3.7,3.5,3.7h43.4c10,0,18.3,8.1,18.3,18.3   c0,10-8.2,18.1-18.3,18.1h-43.4c-2,0-3.5,1.8-3.5,3.7v68.5c0,2,1.6,3.5,3.5,3.5h15.1c2.2,0,3.7-1.6,3.7-3.5V91.9   c0-2.4,1-2.9,3.7-2.9h20.8c23.9,0,43.6-19.6,43.6-43.6c0-24.1-19.6-43.8-43.6-43.8H392.5z"></path>	<path class="st0" d="M499.1,2c-1.4,0-2.4,1-2.4,2.2v19c0,1.2,1.2,2.4,2.4,2.4h33c2.5,0,4.9,2.4,4.9,4.7v106.4c0,1.4,1,2.6,2.6,2.6   h23.4c1.6,0,2.6-1.2,2.6-2.6V30.2c0-2.6,2.2-4.7,4.7-4.7h32.6c1.6,0,2.7-1.2,2.7-2.6V4.5c0-1.4-1.2-2.6-2.7-2.6H499.1z"></path>	<path class="st0" d="M638,1.6c-2,0-3.7,1.8-3.7,3.7v130.3c0,2,1.8,3.5,3.7,3.5h19.6c2,0,3.5-1.6,3.5-3.5V5.3c0-2-1.6-3.7-3.5-3.7   H638z"></path>	<path class="st0" d="M778.3,1.8c-3.3,0-5.1,0.2-5.9,1.6l-28.7,45.9L715.3,3.3c-1-1.4-2.9-1.8-5.5-1.6l-20.2-0.2   c-2.4,0-2.6,2.7-1.2,5.1l41,65.6l-38.7,62c-1.4,2.2-1,4.9,1.6,4.9h19.8c2.7,0,4.5-0.6,5.7-2.2L799.1,6.7c1.4-2.4,1.2-5.1-1.2-5.1   L778.3,1.8z M756.7,108.2c-2,2.9-1.8,4.9-0.2,7.5l13.4,21.4c1,1.6,2.7,2.2,5.5,2.2h19.8c2.5,0,2.9-2.7,1.6-4.9l-25.5-41   c-0.6-0.9-1.2-1.3-1.9-1.3C766.5,91.9,762.6,98.7,756.7,108.2"></path>	<path class="st0" d="M154.9,1.6c-2,0-3.5,1.8-3.5,3.7v18.1c0,2,1.6,3.7,3.5,3.7h40.8c10.4,0,18.6,8.1,18.6,18.3   c0,10-8.2,18.1-18.6,18.1h-40.6c-2.2,0-3.7,1.8-3.7,3.7v68.5c0,2,1.6,3.5,3.7,3.5h15.3c2.2,0,3.7-1.6,3.7-3.5V92.5   c0-2.9,2-3.5,4.9-3.5h16.7c3.9,0,4.7,0.4,5.5,2c0.8,1.6,20.4,45.9,20.4,45.9c1.2,2.4,2.6,2.4,5.1,2.4h16.1c2.2,0,3.7-1.2,2-4.7   l-22.8-50.8c0,0-1-2.5,1-3.9c10.6-8,17.3-20.4,17.3-34.4c0-24.1-19.8-43.8-44.6-43.8H154.9z"></path></g></svg>