<?xml version="1.0" encoding="utf-8"?>
<!-- Generator: Adobe Illustrator 28.1.0, SVG Export Plug-In . SVG Version: 6.00 Build 0)  -->
<svg version="1.1" id="Layer_1" xmlns="http://www.w3.org/2000/svg" xmlns:xlink="http://www.w3.org/1999/xlink" x="0px" y="0px"
	 viewBox="0 0 296.9 69.6" style="enable-background:new 0 0 296.9 69.6;" xml:space="preserve">
<style type="text/css">
	.st0{fill: red;}
	.st1{fill:url(#SVGID_1_);}
</style>
<g>
	<g>
		<path class="st0" d="M70.7,26.6c-1.2-0.6-2.6-0.9-4.4-0.9s-3.3,0.3-4.5,1c-1.3,0.7-2.3,1.7-3,2.9c-0.7,1.2-1.1,2.6-1.1,4.4
			s0.4,3.3,1.1,4.5c0.7,1.2,1.7,2.2,3,2.8c1.3,0.6,2.8,1,4.6,1l0,0c1.6,0,3-0.2,4.2-0.7c1.2-0.5,2.2-1.2,2.9-2s1-1.9,1-3v-0.3H71
			v0.3c0,1-0.4,1.7-1.1,2.2c-0.7,0.5-2,0.8-3.6,0.8c-1.9,0-3.3-0.4-4.1-1.3c-0.7-0.8-1.1-2-1.2-3.4h13.6c0-0.2,0.1-0.5,0.1-0.7
			c0-0.2,0-0.5,0-0.8c0-1.6-0.4-3-1-4.1C72.9,28,71.9,27.2,70.7,26.6z M62.1,29.7c0.8-0.9,2.2-1.3,4.1-1.3c1.7,0,3,0.4,3.8,1.1
			c0.8,0.7,1.3,1.8,1.3,3.3v0.1H61C61.1,31.6,61.4,30.5,62.1,29.7z"/>
		<path class="st0" d="M92.4,31.3c-1-0.5-2.2-0.9-3.6-1.2l-5.2-0.9c-0.8-0.2-1.5-0.4-2.1-0.6c-0.5-0.2-0.9-0.5-1.2-0.9
			c-0.3-0.4-0.4-0.9-0.4-1.5c0-0.7,0.2-1.2,0.5-1.6c0.4-0.4,1-0.7,1.8-1c0.8-0.2,1.9-0.3,3.2-0.3c1.5,0,2.7,0.1,3.6,0.4
			s1.5,0.7,1.9,1.3c0.4,0.6,0.6,1.3,0.6,2.2v0.4h3.5v-0.2c0-1.4-0.3-2.7-1-3.8c-0.7-1.1-1.7-2-3-2.6c-1.3-0.6-3.1-1-5.2-1
			c-1.7,0-3.1,0.2-4.3,0.5c-1.2,0.4-2.1,0.8-2.9,1.4c-0.7,0.6-1.3,1.3-1.6,2c-0.3,0.8-0.5,1.5-0.5,2.3c0,1.2,0.3,2.2,0.8,3
			c0.5,0.8,1.3,1.4,2.2,1.9c0.9,0.5,2,0.8,3.2,1l5.3,0.9c1.4,0.3,2.3,0.6,2.9,1c0.6,0.4,0.9,1.1,0.9,2.1c0,0.7-0.2,1.2-0.5,1.7
			c-0.4,0.4-0.9,0.8-1.8,1c-0.8,0.2-1.9,0.3-3.3,0.3c-1.6,0-2.8-0.1-3.7-0.4S81,38,80.6,37.4c-0.4-0.6-0.6-1.3-0.6-2.1v-0.5h-3.5V35
			c0,1.5,0.4,2.8,1.1,3.9c0.7,1.1,1.8,2,3.3,2.6c1.5,0.6,3.2,0.9,5.4,0.9l0,0c2.1,0,3.8-0.3,5.2-0.9c1.3-0.6,2.3-1.4,2.9-2.3
			c0.6-1,0.9-2,0.9-3.1c0-1-0.2-2-0.7-2.8C94.1,32.4,93.4,31.8,92.4,31.3z"/>
		<path class="st0" d="M107.5,34.5l-1.5,3.9h-0.3l-1.6-3.8l-4.1-8.5h-3.9l7.9,16l-0.4,0.8c-0.2,0.5-0.5,0.9-0.9,1.1
			c-0.3,0.2-0.9,0.3-1.6,0.3h-3.1v3.2h2.3h0c1.1,0,2-0.1,2.8-0.3c0.8-0.2,1.5-0.6,2.1-1.2c0.6-0.5,1.1-1.3,1.5-2.2l8.3-17.7h-3.8
			L107.5,34.5z"/>
		<path class="st0" d="M130.6,26.6c-1-0.6-2.2-0.9-3.7-0.9c-1.3,0-2.5,0.3-3.4,0.8s-1.7,1.2-2.2,2c-0.5,0.8-0.9,1.7-1,2.6h-0.2v-5
			h-3.2v16h3.5v-8.1c0-1.6,0.4-2.9,1.2-3.8c0.8-0.9,2.2-1.3,3.8-1.3c1.7,0,2.9,0.4,3.6,1.1c0.7,0.8,1.1,1.9,1.1,3.4V42h3.5v-9.6
			c0-1.2-0.2-2.4-0.7-3.4C132.4,28,131.6,27.2,130.6,26.6z"/>
		<path class="st0" d="M149,26.5c-1.2-0.6-2.7-0.8-4.3-0.8c-1.8,0-3.3,0.3-4.6,1c-1.3,0.7-2.3,1.7-3,2.9c-0.7,1.2-1.1,2.8-1.1,4.4
			s0.4,3.1,1.1,4.3c0.7,1.3,1.7,2.2,3,2.9c1.3,0.7,2.8,1,4.6,1v0c1.6,0,3-0.3,4.3-0.8s2.2-1.3,2.9-2.4c0.7-1,1.1-2.2,1.1-3.5v-0.4
			h-3.5v0.2c0,1.2-0.4,2.2-1.3,2.8s-2.1,0.9-3.6,0.9c-1.8,0-3.1-0.4-4-1.3c-0.8-0.9-1.3-2.1-1.3-3.9s0.4-3,1.3-3.9
			c0.8-0.9,2.2-1.3,4-1.3c1.6,0,2.8,0.3,3.6,0.9c0.9,0.6,1.3,1.5,1.3,2.8v0.2h3.5v-0.3c0-1.4-0.4-2.5-1.1-3.5
			C151.3,27.9,150.3,27.1,149,26.5z"/>
		<polygon class="st0" points="177.4,33.2 177.6,37.1 177.3,37.1 174.5,33.1 164.9,20.4 161.1,20.4 161.1,42 164.6,42 164.6,42 
			164.6,29.4 164.5,25.6 164.8,25.6 167.5,29.4 177.2,42 180.9,42 180.9,20.4 177.4,20.4 		"/>
		<path class="st0" d="M196.7,26.6c-1.2-0.6-2.6-0.9-4.4-0.9s-3.2,0.3-4.5,1c-1.3,0.7-2.3,1.7-3,2.9c-0.7,1.2-1.1,2.6-1.1,4.4
			s0.4,3.3,1.1,4.5c0.7,1.2,1.7,2.2,3,2.8c1.3,0.6,2.8,1,4.6,1l0,0c1.6,0,3-0.2,4.2-0.7c1.2-0.5,2.2-1.2,2.9-2c0.7-0.9,1-1.9,1-3
			v-0.3h-3.5v0.3c0,1-0.4,1.7-1.1,2.2c-0.7,0.5-1.9,0.8-3.6,0.8c-1.9,0-3.3-0.4-4.1-1.3c-0.7-0.8-1.1-2-1.2-3.4h13.6
			c0.1-0.2,0.1-0.5,0.1-0.7s0-0.5,0-0.8c0-1.6-0.3-3-1-4.1S198,27.2,196.7,26.6z M188.2,29.7c0.8-0.9,2.2-1.3,4.1-1.3
			c1.7,0,3,0.4,3.8,1.1c0.9,0.7,1.3,1.8,1.3,3.3v0.1H187C187.1,31.6,187.5,30.5,188.2,29.7z"/>
		<path class="st0" d="M208.6,38.4c-0.5-0.3-0.7-1-0.7-2v-7.5h5.8V26h-5.8v-3.5h-3.5V26h-2.7v2.9h2.7v7.7c0,1.9,0.5,3.3,1.5,4.1
			c1,0.8,2.3,1.3,4.1,1.3h3.7h0v-3.1h-2.9C209.8,38.9,209.1,38.7,208.6,38.4z"/>
		<polygon class="st0" points="236.4,35.1 235.7,39.2 235.4,39.2 234.2,34.8 230.9,26 226.4,26 223.1,34.8 221.9,39.2 221.6,39.2 
			220.9,35.1 218.2,26 214.6,26 219.4,42 223.7,42 223.7,42 227.3,32.8 228.5,28.9 228.7,28.9 230,32.8 233.5,42 237.8,42 242.6,26 
			239.1,26 		"/>
		<path class="st0" d="M256.8,26.7c-1.3-0.7-2.9-1-4.7-1c-1.8,0-3.3,0.3-4.7,1c-1.3,0.7-2.4,1.7-3.1,2.9c-0.7,1.2-1.1,2.8-1.1,4.4
			s0.4,3.1,1.1,4.3s1.8,2.2,3.1,2.9c1.3,0.7,2.9,1,4.7,1c1.8,0,3.4-0.3,4.7-1c1.3-0.7,2.4-1.7,3.1-2.9c0.7-1.2,1.1-2.7,1.1-4.3
			s-0.4-3.1-1.1-4.4C259.2,28.4,258.2,27.4,256.8,26.7z M256.4,37.9c-0.9,0.9-2.3,1.3-4.2,1.3c-1.9,0-3.3-0.5-4.2-1.3
			c-0.9-0.9-1.3-2.2-1.3-3.9s0.4-3,1.3-3.9c0.9-0.9,2.2-1.4,4.2-1.4c2,0,3.4,0.5,4.2,1.4c0.9,0.9,1.3,2.2,1.3,3.9
			S257.2,37,256.4,37.9z"/>
		<path class="st0" d="M275.6,26.4c-0.8-0.5-1.8-0.8-3-0.8c-1.1,0-2,0.2-2.8,0.6c-0.8,0.4-1.4,1-1.8,1.7s-0.8,1.5-0.9,2.4h-0.2V26
			h-3.2v16h3.5v-9l0,0c0-1.4,0.3-2.5,0.9-3.2c0.6-0.8,1.6-1.1,3-1.1c1.2,0,2.1,0.3,2.6,0.8c0.5,0.5,0.8,1.4,0.8,2.5v1.4h3.5v-2.1
			c0-1-0.2-1.9-0.5-2.8C276.9,27.6,276.4,27,275.6,26.4z"/>
		<polygon class="st0" points="296.9,26 292.9,26 288.1,32.4 283.5,32.4 283.5,20.4 280,20.4 280,42 283.5,42 283.5,35.5 
			288.1,35.5 292.8,42 296.9,42 296.9,42 290.9,33.7 		"/>
	</g>
	
		<linearGradient id="SVGID_1_" gradientUnits="userSpaceOnUse" x1="5.8584" y1="70.6297" x2="41.5984" y2="3.3497" gradientTransform="matrix(1 0 0 -1 0 72.06)">
		<stop  offset="0.24" style="stop-color:#9052D1"/>
		<stop  offset="0.91" style="stop-color:#50B0F9"/>
	</linearGradient>
	<path class="st1" d="M21.4,69.6l17.3-17.3c2.7-2.7,4.2-7.1,3.9-11.7c-0.2-3.8-1.6-9.4-7-14.8l-1.5-1.5L8.3,50l-0.1-0.1
		c-7-8.2-3.8-15.4,0.1-20C12.5,25,29.3,8.5,32,6.1l0.1-0.1l0.1,0.2c1.6,3.1,1,6.8-1.5,9.3L13.2,32.9c-0.8,0.8-1.2,1.9-1.2,3
		s0.4,2.1,1.1,2.9l20.5-20.5c4.6-4.6,4.8-12,0.3-16.8L32.6,0l-1.5,1.3C31,1.5,11.1,20.3,5.2,27.3C-2.3,36-1.7,45.9,6.8,54.5l1.5,1.5
		l25.8-25.8l0.1,0.1c3.3,4,4.2,7.9,4.3,10.5c0.2,3.5-0.9,6.8-2.7,8.6L21.6,63.6l-0.1-0.2c-1.6-3-1.1-6.8,1.3-9.2l5.5-5.5
		c0.8-0.8,1.2-1.9,1.2-3s-0.4-2.1-1.2-2.9l-8.5,8.5c-4.6,4.7-4.6,12.2,0,16.8L21.4,69.6L21.4,69.6z"/>
</g>
</svg>
