<?xml version="1.0" encoding="utf-8"?>
<!-- Generator: Adobe Illustrator 28.1.0, SVG Export Plug-In . SVG Version: 6.00 Build 0)  -->
<svg version="1.1" id="Layer_1" xmlns="http://www.w3.org/2000/svg" xmlns:xlink="http://www.w3.org/1999/xlink" x="0px" y="0px"
	 viewBox="0 0 69.6 69.6" style="enable-background:new 0 0 69.6 69.6;" xml:space="preserve">
<style type="text/css">
	.st0{fill:url(#SVGID_1_);}
</style>
<g>
	
		<linearGradient id="SVGID_1_" gradientUnits="userSpaceOnUse" x1="19.3111" y1="70.6297" x2="55.0511" y2="3.3497" gradientTransform="matrix(1 0 0 -1 0 72.06)">
		<stop  offset="0.24" style="stop-color:#9052D1"/>
		<stop  offset="0.91" style="stop-color:#50B0F9"/>
	</linearGradient>
	<path class="st0" d="M34.8,69.6l17.3-17.3c2.7-2.7,4.2-7.1,3.9-11.7c-0.2-3.8-1.6-9.4-7-14.8l-1.5-1.5L21.8,50l-0.1-0.1
		c-7-8.2-3.8-15.4,0.1-20c4.1-4.9,21-21.4,23.7-23.9l0.1-0.1l0.1,0.2c1.6,3.1,1,6.8-1.5,9.3L26.7,32.9c-0.8,0.8-1.2,1.9-1.2,3
		s0.4,2.1,1.1,2.9l20.5-20.5c4.6-4.6,4.8-12,0.3-16.8L46.1,0l-1.5,1.3c-0.2,0.1-20,18.9-25.9,25.9c-7.5,8.8-6.9,18.7,1.7,27.2
		l1.5,1.5l25.8-25.8l0.1,0.1c3.3,4,4.2,7.9,4.3,10.5c0.2,3.5-0.9,6.8-2.7,8.6L35,63.6l-0.1-0.2c-1.6-3-1.1-6.8,1.3-9.2l5.5-5.5
		c0.8-0.8,1.2-1.9,1.2-3s-0.4-2.1-1.2-2.9l-8.5,8.5c-4.6,4.7-4.6,12.2,0,16.8L34.8,69.6L34.8,69.6z"/>
</g>
</svg>
